<?xml version="1.0" standalone="no"?>
<!DOCTYPE svg PUBLIC "-//W3C//DTD SVG 20010904//EN"
 "http://www.w3.org/TR/2001/REC-SVG-20010904/DTD/svg10.dtd">
<svg version="1.0" xmlns="http://www.w3.org/2000/svg"
 width="1200.000000pt" height="1200.000000pt" viewBox="0 0 1200.000000 1200.000000"
 preserveAspectRatio="xMidYMid meet">

<g transform="translate(0.000000,1200.000000) scale(0.100000,-0.100000)"
fill="#000000" stroke="none">
<path d="M2462 8077 l-2062 -2062 0 -838 0 -837 2065 0 2065 0 0 -1035 0
-1035 1028 2 1027 3 3 1868 2 1867 -2062 0 -2063 0 1170 1173 c644 644 1570
1574 2060 2065 l890 892 -1030 0 -1030 0 -2063 -2063z"/>
<path d="M7470 9110 c0 -566 3 -1030 6 -1030 3 0 466 462 1029 1028 l1024
1027 1 -1035 0 -1035 -1030 -1030 -1030 -1030 0 -1027 0 -1028 1030 0 1030 0
0 1028 0 1027 1035 1035 1035 1035 0 1032 0 1033 -2065 0 -2065 0 0 -1030z"/>
<path d="M10565 4980 l-1030 -1030 1033 0 1032 0 0 1030 c0 567 -1 1030 -3
1030 -1 0 -466 -463 -1032 -1030z"/>
</g>
</svg>
